<?xml version="1.0" encoding="UTF-8"?>
<!DOCTYPE svg PUBLIC "-//W3C//DTD SVG 1.1//EN" "http://www.w3.org/Graphics/SVG/1.1/DTD/svg11.dtd">
<svg version="1.2" width="210mm" height="297mm" viewBox="0 0 21000 29700" preserveAspectRatio="xMidYMid" fill-rule="evenodd" clip-path="url(#presentation_clip_path)" stroke-width="28.222" stroke-linejoin="round" xmlns="http://www.w3.org/2000/svg" xmlns:ooo="http://xml.openoffice.org/svg/export" xmlns:xlink="http://www.w3.org/1999/xlink" xml:space="preserve">
 <defs class="ClipPathGroup">
  <clipPath id="presentation_clip_path" clipPathUnits="userSpaceOnUse">
   <rect x="0" y="0" width="21000" height="29700"/>
  </clipPath>
 </defs>
 <defs class="TextShapeIndex">
  <g ooo:slide="id1" ooo:id-list="id3 id4 id5 id6 id7 id8 id9 id10 id11 id12 id13 id14 id15 id16 id17 id18 id19 id20 id21 id22 id23 id24 id25 id26 id27 id28"/>
 </defs>
 <defs class="EmbeddedBulletChars">
  <g id="bullet-char-template(57356)" transform="scale(0.00048828125,-0.00048828125)">
   <path d="M 580,1141 L 1163,571 580,0 -4,571 580,1141 Z"/>
  </g>
  <g id="bullet-char-template(57354)" transform="scale(0.00048828125,-0.00048828125)">
   <path d="M 8,1128 L 1137,1128 1137,0 8,0 8,1128 Z"/>
  </g>
  <g id="bullet-char-template(10146)" transform="scale(0.00048828125,-0.00048828125)">
   <path d="M 174,0 L 602,739 174,1481 1456,739 174,0 Z M 1358,739 L 309,1346 659,739 1358,739 Z"/>
  </g>
  <g id="bullet-char-template(10132)" transform="scale(0.00048828125,-0.00048828125)">
   <path d="M 2015,739 L 1276,0 717,0 1260,543 174,543 174,936 1260,936 717,1481 1274,1481 2015,739 Z"/>
  </g>
  <g id="bullet-char-template(10007)" transform="scale(0.00048828125,-0.00048828125)">
   <path d="M 0,-2 C -7,14 -16,27 -25,37 L 356,567 C 262,823 215,952 215,954 215,979 228,992 255,992 264,992 276,990 289,987 310,991 331,999 354,1012 L 381,999 492,748 772,1049 836,1024 860,1049 C 881,1039 901,1025 922,1006 886,937 835,863 770,784 769,783 710,716 594,584 L 774,223 C 774,196 753,168 711,139 L 727,119 C 717,90 699,76 672,76 641,76 570,178 457,381 L 164,-76 C 142,-110 111,-127 72,-127 30,-127 9,-110 8,-76 1,-67 -2,-52 -2,-32 -2,-23 -1,-13 0,-2 Z"/>
  </g>
  <g id="bullet-char-template(10004)" transform="scale(0.00048828125,-0.00048828125)">
   <path d="M 285,-33 C 182,-33 111,30 74,156 52,228 41,333 41,471 41,549 55,616 82,672 116,743 169,778 240,778 293,778 328,747 346,684 L 369,508 C 377,444 397,411 428,410 L 1163,1116 C 1174,1127 1196,1133 1229,1133 1271,1133 1292,1118 1292,1087 L 1292,965 C 1292,929 1282,901 1262,881 L 442,47 C 390,-6 338,-33 285,-33 Z"/>
  </g>
  <g id="bullet-char-template(9679)" transform="scale(0.00048828125,-0.00048828125)">
   <path d="M 813,0 C 632,0 489,54 383,161 276,268 223,411 223,592 223,773 276,916 383,1023 489,1130 632,1184 813,1184 992,1184 1136,1130 1245,1023 1353,916 1407,772 1407,592 1407,412 1353,268 1245,161 1136,54 992,0 813,0 Z"/>
  </g>
  <g id="bullet-char-template(8226)" transform="scale(0.00048828125,-0.00048828125)">
   <path d="M 346,457 C 273,457 209,483 155,535 101,586 74,649 74,723 74,796 101,859 155,911 209,963 273,989 346,989 419,989 480,963 531,910 582,859 608,796 608,723 608,648 583,586 532,535 482,483 420,457 346,457 Z"/>
  </g>
  <g id="bullet-char-template(8211)" transform="scale(0.00048828125,-0.00048828125)">
   <path d="M -4,459 L 1135,459 1135,606 -4,606 -4,459 Z"/>
  </g>
 </defs>
 <defs class="TextEmbeddedBitmaps"/>
 <g>
  <g id="id2" class="Master_Slide">
   <g id="bg-id2" class="Background"/>
   <g id="bo-id2" class="BackgroundObjects"/>
  </g>
 </g>
 <g class="SlideGroup">
  <g>
   <g id="id1" class="Slide" clip-path="url(#presentation_clip_path)">
    <g class="Page">
     <g class="com.sun.star.drawing.CustomShape">
      <g id="id3">
       <path fill="rgb(255,255,255)" stroke="none" d="M 7123,1990 C 7018,1807 7510,1634 8003,1634 8158,1632 8318,1650 8450,1677 8576,1594 8811,1543 9074,1543 9248,1546 9434,1571 9566,1615 9661,1542 9861,1499 10077,1499 10258,1499 10424,1530 10529,1578 10650,1529 10832,1499 11021,1499 11329,1499 11590,1576 11645,1685 11943,1715 12158,1813 12158,1926 12158,1960 12143,1993 12098,2025 12224,2080 12301,2148 12301,2217 12301,2374 11961,2507 11524,2530 11524,2680 11187,2798 10766,2798 10621,2798 10484,2784 10363,2756 10253,2889 9903,2982 9511,2982 9218,2982 8942,2927 8776,2839 8621,2873 8703,2892 8258,2892 7892,2892 7555,2823 7379,2710 6958,2708 6742,2618 6742,2506 6742,2453 6797,2406 6897,2367 6716,2334 6616,2269 6616,2194 6616,2089 6837,2002 7123,1990 L 7123,1990 Z M 6616,1499 L 6616,1499 Z M 12301,2983 L 12301,2983 Z"/>
       <path fill="none" stroke="rgb(0,153,255)" d="M 7123,1990 C 7018,1807 7510,1634 8003,1634 8158,1632 8318,1650 8450,1677 8576,1594 8811,1543 9074,1543 9248,1546 9434,1571 9566,1615 9661,1542 9861,1499 10077,1499 10258,1499 10424,1530 10529,1578 10650,1529 10832,1499 11021,1499 11329,1499 11590,1576 11645,1685 11943,1715 12158,1813 12158,1926 12158,1960 12143,1993 12098,2025 12224,2080 12301,2148 12301,2217 12301,2374 11961,2507 11524,2530 11524,2680 11187,2798 10766,2798 10621,2798 10484,2784 10363,2756 10253,2889 9903,2982 9511,2982 9218,2982 8942,2927 8776,2839 8621,2873 8703,2892 8258,2892 7892,2892 7555,2823 7379,2710 6958,2708 6742,2618 6742,2506 6742,2453 6797,2406 6897,2367 6716,2334 6616,2269 6616,2194 6616,2089 6837,2002 7123,1990 L 7123,1990 Z"/>
       <path fill="none" stroke="rgb(0,153,255)" d="M 7123,1990 C 7129,2008 7152,2027 7166,2043"/>
       <path fill="none" stroke="rgb(0,153,255)" d="M 6616,1499 L 6616,1499 Z"/>
       <path fill="none" stroke="rgb(0,153,255)" d="M 12301,2983 L 12301,2983 Z"/>
       <path fill="none" stroke="rgb(0,153,255)" d="M 8450,1677 C 8511,1690 8584,1708 8634,1726"/>
       <path fill="none" stroke="rgb(0,153,255)" d="M 6616,1499 L 6616,1499 Z"/>
       <path fill="none" stroke="rgb(0,153,255)" d="M 12301,2983 L 12301,2983 Z"/>
       <path fill="none" stroke="rgb(0,153,255)" d="M 9566,1615 C 9545,1630 9532,1647 9519,1663"/>
       <path fill="none" stroke="rgb(0,153,255)" d="M 6616,1499 L 6616,1499 Z"/>
       <path fill="none" stroke="rgb(0,153,255)" d="M 12301,2983 L 12301,2983 Z"/>
       <path fill="none" stroke="rgb(0,153,255)" d="M 10529,1578 C 10490,1595 10469,1617 10442,1637"/>
       <path fill="none" stroke="rgb(0,153,255)" d="M 6616,1499 L 6616,1499 Z"/>
       <path fill="none" stroke="rgb(0,153,255)" d="M 12301,2983 L 12301,2983 Z"/>
       <path fill="none" stroke="rgb(0,153,255)" d="M 11645,1685 C 11650,1697 11677,1725 11666,1731"/>
       <path fill="none" stroke="rgb(0,153,255)" d="M 6616,1499 L 6616,1499 Z"/>
       <path fill="none" stroke="rgb(0,153,255)" d="M 12301,2983 L 12301,2983 Z"/>
       <path fill="none" stroke="rgb(0,153,255)" d="M 12098,2025 C 12053,2060 11993,2091 11908,2116"/>
       <path fill="none" stroke="rgb(0,153,255)" d="M 6616,1499 L 6616,1499 Z"/>
       <path fill="none" stroke="rgb(0,153,255)" d="M 12301,2983 L 12301,2983 Z"/>
       <path fill="none" stroke="rgb(0,153,255)" d="M 11527,2530 C 11548,2474 11427,2337 11090,2285"/>
       <path fill="none" stroke="rgb(0,153,255)" d="M 6616,1499 L 6616,1499 Z"/>
       <path fill="none" stroke="rgb(0,153,255)" d="M 12301,2983 L 12301,2983 Z"/>
       <path fill="none" stroke="rgb(0,153,255)" d="M 10363,2756 C 10384,2734 10392,2713 10398,2691"/>
       <path fill="none" stroke="rgb(0,153,255)" d="M 6616,1499 L 6616,1499 Z"/>
       <path fill="none" stroke="rgb(0,153,255)" d="M 12301,2983 L 12301,2983 Z"/>
       <path fill="none" stroke="rgb(0,153,255)" d="M 8779,2839 C 8737,2821 8711,2800 8684,2779"/>
       <path fill="none" stroke="rgb(0,153,255)" d="M 6616,1499 L 6616,1499 Z"/>
       <path fill="none" stroke="rgb(0,153,255)" d="M 12301,2983 L 12301,2983 Z"/>
       <path fill="none" stroke="rgb(0,153,255)" d="M 7379,2710 C 7429,2708 7479,2704 7526,2697"/>
       <path fill="none" stroke="rgb(0,153,255)" d="M 6616,1499 L 6616,1499 Z"/>
       <path fill="none" stroke="rgb(0,153,255)" d="M 12301,2983 L 12301,2983 Z"/>
       <path fill="none" stroke="rgb(0,153,255)" d="M 6897,2367 C 6984,2385 7084,2401 7229,2394"/>
       <path fill="none" stroke="rgb(0,153,255)" d="M 6616,1499 L 6616,1499 Z"/>
       <path fill="none" stroke="rgb(0,153,255)" d="M 12301,2983 L 12301,2983 Z"/>
       <text class="TextShape"><tspan class="TextParagraph" font-family="Arial, sans-serif" font-size="635px" font-weight="400"><tspan class="TextPosition" x="7655" y="2448"><tspan fill="rgb(0,0,0)" stroke="none">the Internet</tspan></tspan></tspan></text>
      </g>
     </g>
     <g class="com.sun.star.drawing.CustomShape">
      <g id="id4">
       <path fill="rgb(255,255,255)" stroke="none" d="M 2100,8000 L 12701,8000 12701,14201 2100,14201 2100,8000 2100,8000 Z M 2100,8000 L 2100,8000 Z M 12701,14201 L 12701,14201 Z"/>
       <path fill="none" stroke="rgb(0,153,255)" d="M 2100,8000 L 12701,8000 12701,14201 2100,14201 2100,8000 2100,8000 Z"/>
       <text class="TextShape"><tspan class="TextParagraph" font-family="Arial, sans-serif" font-size="635px" font-weight="400"><tspan class="TextPosition" x="2370" y="8721"><tspan fill="rgb(0,0,0)" stroke="none">PC</tspan></tspan></tspan></text>
      </g>
     </g>
     <g class="com.sun.star.drawing.CustomShape">
      <g id="id5">
       <path fill="rgb(255,255,255)" stroke="none" d="M 7508,3700 L 11409,3700 11409,4601 7508,4601 7508,3700 7508,3700 Z M 7508,3700 L 7508,3700 Z M 11409,4601 L 11409,4601 Z"/>
       <path fill="none" stroke="rgb(0,153,255)" d="M 7508,3700 L 11409,3700 11409,4601 7508,4601 7508,3700 7508,3700 Z"/>
       <text class="TextShape"><tspan class="TextParagraph" font-family="Arial, sans-serif" font-size="635px" font-weight="400"><tspan class="TextPosition" x="8364" y="4421"><tspan fill="rgb(0,0,0)" stroke="none">Firewall</tspan></tspan></tspan></text>
      </g>
     </g>
     <g class="com.sun.star.drawing.CustomShape">
      <g id="id6">
       <path fill="rgb(255,255,255)" stroke="none" d="M 7508,5100 L 11409,5100 11409,6001 7508,6001 7508,5100 7508,5100 Z M 7508,5100 L 7508,5100 Z M 11409,6001 L 11409,6001 Z"/>
       <path fill="none" stroke="rgb(0,153,255)" d="M 7508,5100 L 11409,5100 11409,6001 7508,6001 7508,5100 7508,5100 Z"/>
       <text class="TextShape"><tspan class="TextParagraph" font-family="Arial, sans-serif" font-size="635px" font-weight="400"><tspan class="TextPosition" x="8648" y="5821"><tspan fill="rgb(0,0,0)" stroke="none">Proxy</tspan></tspan></tspan></text>
      </g>
     </g>
     <g class="com.sun.star.drawing.CustomShape">
      <g id="id7">
       <path fill="rgb(255,255,255)" stroke="none" d="M 2700,12800 L 4701,12800 4701,13701 2700,13701 2700,12800 2700,12800 Z M 2700,12800 L 2700,12800 Z M 4701,13701 L 4701,13701 Z"/>
       <path fill="none" stroke="rgb(0,153,255)" d="M 2700,12800 L 4701,12800 4701,13701 2700,13701 2700,12800 2700,12800 Z"/>
       <text class="TextShape"><tspan class="TextParagraph" font-family="Arial, sans-serif" font-size="635px" font-weight="400"><tspan class="TextPosition" x="3224" y="13521"><tspan fill="rgb(0,0,0)" stroke="none">VM</tspan></tspan></tspan></text>
      </g>
     </g>
     <g class="com.sun.star.drawing.CustomShape">
      <g id="id8">
       <path fill="rgb(255,255,255)" stroke="none" d="M 7800,9200 L 12001,9200 12001,10600 7800,10600 7800,9200 7800,9200 Z M 7800,9200 L 7800,9200 Z M 12001,10601 L 12001,10601 Z"/>
       <path fill="none" stroke="rgb(0,153,255)" d="M 7800,9200 L 12001,9200 12001,10600 7800,10600 7800,9200 7800,9200 Z"/>
       <text class="TextShape"><tspan class="TextParagraph" font-family="Arial, sans-serif" font-size="635px" font-weight="400"><tspan class="TextPosition" x="8736" y="9921"><tspan fill="rgb(0,0,0)" stroke="none">Browser</tspan></tspan></tspan></text>
      </g>
     </g>
     <g class="com.sun.star.drawing.CustomShape">
      <g id="id9">
       <path fill="rgb(255,255,255)" stroke="none" d="M 5000,12800 L 7001,12800 7001,13701 5000,13701 5000,12800 5000,12800 Z M 5000,12800 L 5000,12800 Z M 7001,13701 L 7001,13701 Z"/>
       <path fill="none" stroke="rgb(0,153,255)" d="M 5000,12800 L 7001,12800 7001,13701 5000,13701 5000,12800 5000,12800 Z"/>
       <text class="TextShape"><tspan class="TextParagraph" font-family="Arial, sans-serif" font-size="635px" font-weight="400"><tspan class="TextPosition" x="5524" y="13521"><tspan fill="rgb(0,0,0)" stroke="none">VM</tspan></tspan></tspan></text>
      </g>
     </g>
     <g class="Group">
      <g class="com.sun.star.drawing.CustomShape">
       <g id="id10">
        <path fill="rgb(255,255,255)" stroke="none" d="M 14499,4476 L 17191,4476 17191,5439 14499,5439 14499,4476 14499,4476 Z M 14499,4476 L 14499,4476 Z M 17191,5439 L 17191,5439 Z"/>
        <path fill="none" stroke="rgb(0,153,255)" d="M 14499,4476 L 17191,4476 17191,5439 14499,5439 14499,4476 14499,4476 Z"/>
       </g>
      </g>
      <g class="com.sun.star.drawing.CustomShape">
       <g id="id11">
        <path fill="rgb(255,255,255)" stroke="none" d="M 14258,4738 L 16950,4738 16950,5701 14258,5701 14258,4738 14258,4738 Z M 14258,4738 L 14258,4738 Z M 16950,5701 L 16950,5701 Z"/>
        <path fill="none" stroke="rgb(0,153,255)" d="M 14258,4738 L 16950,4738 16950,5701 14258,5701 14258,4738 14258,4738 Z"/>
       </g>
      </g>
      <g class="com.sun.star.drawing.CustomShape">
       <g id="id12">
        <path fill="rgb(255,255,255)" stroke="none" d="M 13879,5038 L 16611,5038 16611,6041 13879,6041 13879,5038 13879,5038 Z M 13879,5038 L 13879,5038 Z M 16611,6041 L 16611,6041 Z"/>
        <path fill="none" stroke="rgb(0,153,255)" d="M 13879,5038 L 16611,5038 16611,6041 13879,6041 13879,5038 13879,5038 Z"/>
        <text class="TextShape"><tspan class="TextParagraph" font-family="Arial, sans-serif" font-size="635px" font-weight="400"><tspan class="TextPosition" x="14150" y="5759"><tspan fill="rgb(0,0,0)" stroke="none">Servers</tspan></tspan></tspan></text>
       </g>
      </g>
     </g>
     <g class="com.sun.star.drawing.ConnectorShape">
      <g id="id13">
       <path fill="none" stroke="rgb(0,153,255)" d="M 7400,8000 L 7400,7001 9458,7001 9458,6000"/>
      </g>
     </g>
     <g class="com.sun.star.drawing.ConnectorShape">
      <g id="id14">
       <path fill="none" stroke="rgb(0,153,255)" d="M 9458,5100 L 9458,4600"/>
      </g>
     </g>
     <g class="com.sun.star.drawing.ConnectorShape">
      <g id="id15">
       <path fill="none" stroke="rgb(0,153,255)" d="M 9458,3700 L 9458,2983"/>
      </g>
     </g>
     <g class="com.sun.star.drawing.ConnectorShape">
      <g id="id16">
       <path fill="none" stroke="rgb(0,153,255)" d="M 11754,6996 L 11754,7000 15535,7000 15535,6040"/>
      </g>
     </g>
     <g class="com.sun.star.drawing.LineShape">
      <g id="id17">
       <path fill="none" stroke="rgb(0,153,255)" d="M 2000,7000 L 16800,7000"/>
      </g>
     </g>
     <g class="com.sun.star.drawing.CustomShape">
      <g id="id18">
       <path fill="rgb(255,255,255)" stroke="none" d="M 7800,10800 L 9801,10800 9801,11701 7800,11701 7800,10800 7800,10800 Z M 7800,10800 L 7800,10800 Z M 9801,11701 L 9801,11701 Z"/>
       <path fill="none" stroke="rgb(0,153,255)" d="M 7800,10800 L 9801,10800 9801,11701 7800,11701 7800,10800 7800,10800 Z"/>
       <text class="TextShape"><tspan class="TextParagraph" font-family="Arial, sans-serif" font-size="635px" font-weight="400"><tspan class="TextPosition" x="8235" y="11521"><tspan fill="rgb(0,0,0)" stroke="none">App</tspan></tspan></tspan></text>
      </g>
     </g>
     <g class="com.sun.star.drawing.CustomShape">
      <g id="id19">
       <path fill="rgb(255,255,255)" stroke="none" d="M 10000,10800 L 12001,10800 12001,11701 10000,11701 10000,10800 10000,10800 Z M 10000,10800 L 10000,10800 Z M 12001,11701 L 12001,11701 Z"/>
       <path fill="none" stroke="rgb(0,153,255)" d="M 10000,10800 L 12001,10800 12001,11701 10000,11701 10000,10800 10000,10800 Z"/>
       <text class="TextShape"><tspan class="TextParagraph" font-family="Arial, sans-serif" font-size="635px" font-weight="400"><tspan class="TextPosition" x="10435" y="11521"><tspan fill="rgb(0,0,0)" stroke="none">App</tspan></tspan></tspan></text>
      </g>
     </g>
     <g class="com.sun.star.drawing.CustomShape">
      <g id="id20">
       <g>
        <defs>
         <pattern id="pattern1" x="2800" y="9200" width="4110" height="902" patternUnits="userSpaceOnUse">
          <g transform="translate(-2800,-9200)">
           <line fill="rgb(0,153,255)" stroke="rgb(0,153,255)" x1="2800" y1="9467" x2="3067" y2="9200"/>
           <line fill="rgb(0,153,255)" stroke="rgb(0,153,255)" x1="2800" y1="9784" x2="3384" y2="9200"/>
           <line fill="rgb(0,153,255)" stroke="rgb(0,153,255)" x1="2800" y1="10101" x2="3701" y2="9200"/>
           <line fill="rgb(0,153,255)" stroke="rgb(0,153,255)" x1="3117" y1="10101" x2="4018" y2="9200"/>
           <line fill="rgb(0,153,255)" stroke="rgb(0,153,255)" x1="3434" y1="10101" x2="4335" y2="9200"/>
           <line fill="rgb(0,153,255)" stroke="rgb(0,153,255)" x1="3751" y1="10101" x2="4652" y2="9200"/>
           <line fill="rgb(0,153,255)" stroke="rgb(0,153,255)" x1="4068" y1="10101" x2="4969" y2="9200"/>
           <line fill="rgb(0,153,255)" stroke="rgb(0,153,255)" x1="4385" y1="10101" x2="5286" y2="9200"/>
           <line fill="rgb(0,153,255)" stroke="rgb(0,153,255)" x1="4702" y1="10101" x2="5603" y2="9200"/>
           <line fill="rgb(0,153,255)" stroke="rgb(0,153,255)" x1="5019" y1="10101" x2="5920" y2="9200"/>
           <line fill="rgb(0,153,255)" stroke="rgb(0,153,255)" x1="5336" y1="10101" x2="6237" y2="9200"/>
           <line fill="rgb(0,153,255)" stroke="rgb(0,153,255)" x1="5653" y1="10101" x2="6554" y2="9200"/>
           <line fill="rgb(0,153,255)" stroke="rgb(0,153,255)" x1="5970" y1="10101" x2="6871" y2="9200"/>
           <line fill="rgb(0,153,255)" stroke="rgb(0,153,255)" x1="6287" y1="10101" x2="6909" y2="9479"/>
           <line fill="rgb(0,153,255)" stroke="rgb(0,153,255)" x1="6604" y1="10101" x2="6909" y2="9796"/>
          </g>
         </pattern>
        </defs>
        <path style="fill:url(#pattern1)" d="M 2800,9200 L 6909,9200 6909,10101 2800,10101 2800,9200 2800,9200 Z M 2800,9200 L 2800,9200 Z M 6909,10101 L 6909,10101 Z"/>
       </g>
       <path fill="none" stroke="rgb(0,153,255)" d="M 2800,9200 L 6909,9200 6909,10101 2800,10101 2800,9200 2800,9200 Z"/>
       <text class="TextShape"><tspan class="TextParagraph" font-family="Arial, sans-serif" font-size="635px" font-weight="400"><tspan class="TextPosition" x="4044" y="9921"><tspan fill="rgb(0,0,0)" stroke="none">Proxy</tspan></tspan></tspan></text>
      </g>
     </g>
     <g class="com.sun.star.drawing.LineShape">
      <g id="id21">
       <path fill="none" stroke="rgb(0,153,255)" d="M 2800,11400 L 7100,11400"/>
      </g>
     </g>
     <g class="com.sun.star.drawing.ConnectorShape">
      <g id="id22">
       <path fill="none" stroke="rgb(0,153,255)" d="M 6000,12800 L 6000,11400 4854,11400 4854,10100"/>
      </g>
     </g>
     <g class="com.sun.star.drawing.ConnectorShape">
      <g id="id23">
       <path fill="none" stroke="rgb(0,153,255)" d="M 3700,12800 L 3700,11400 4854,11400 4854,10100"/>
      </g>
     </g>
     <g class="com.sun.star.drawing.CustomShape">
      <g id="id24">
       <path fill="none" stroke="rgb(0,153,255)" d="M 8003,8500 L 8000,8500 C 7983,8500 7966,8501 7949,8503"/>
       <path fill="none" stroke="rgb(0,153,255)" d="M 7899,8511 C 7882,8515 7866,8519 7849,8524"/>
       <path fill="none" stroke="rgb(0,153,255)" d="M 7802,8542 C 7786,8548 7771,8556 7755,8564"/>
       <path fill="none" stroke="rgb(0,153,255)" d="M 7711,8589 C 7697,8598 7683,8607 7669,8618"/>
       <path fill="none" stroke="rgb(0,153,255)" d="M 7629,8649 C 7616,8660 7603,8672 7591,8684"/>
       <path fill="none" stroke="rgb(0,153,255)" d="M 7556,8721 C 7545,8734 7534,8747 7524,8760"/>
       <path fill="none" stroke="rgb(0,153,255)" d="M 7494,8802 C 7485,8817 7477,8831 7468,8846"/>
       <path fill="none" stroke="rgb(0,153,255)" d="M 7446,8892 C 7439,8908 7433,8924 7427,8940"/>
       <path fill="none" stroke="rgb(0,153,255)" d="M 7413,8989 C 7409,9005 7406,9022 7404,9039"/>
       <path fill="none" stroke="rgb(0,153,255)" d="M 7400,9090 C 7400,9093 7400,9097 7400,9100 L 7400,9141"/>
       <path fill="none" stroke="rgb(0,153,255)" d="M 7400,9192 L 7400,9243"/>
       <path fill="none" stroke="rgb(0,153,255)" d="M 7400,9294 L 7400,9345"/>
       <path fill="none" stroke="rgb(0,153,255)" d="M 7400,9396 L 7400,9447"/>
       <path fill="none" stroke="rgb(0,153,255)" d="M 7400,9498 L 7400,9549"/>
       <path fill="none" stroke="rgb(0,153,255)" d="M 7400,9600 L 7400,9651"/>
       <path fill="none" stroke="rgb(0,153,255)" d="M 7400,9702 L 7400,9753"/>
       <path fill="none" stroke="rgb(0,153,255)" d="M 7400,9804 L 7400,9855"/>
       <path fill="none" stroke="rgb(0,153,255)" d="M 7400,9906 L 7400,9957"/>
       <path fill="none" stroke="rgb(0,153,255)" d="M 7400,10008 L 7400,10059"/>
       <path fill="none" stroke="rgb(0,153,255)" d="M 7400,10110 L 7400,10161"/>
       <path fill="none" stroke="rgb(0,153,255)" d="M 7400,10212 L 7400,10263"/>
       <path fill="none" stroke="rgb(0,153,255)" d="M 7400,10314 L 7400,10365"/>
       <path fill="none" stroke="rgb(0,153,255)" d="M 7400,10416 L 7400,10467"/>
       <path fill="none" stroke="rgb(0,153,255)" d="M 7400,10518 L 7400,10569"/>
       <path fill="none" stroke="rgb(0,153,255)" d="M 7400,10620 L 7400,10671"/>
       <path fill="none" stroke="rgb(0,153,255)" d="M 7400,10722 L 7400,10773"/>
       <path fill="none" stroke="rgb(0,153,255)" d="M 7400,10824 L 7400,10875"/>
       <path fill="none" stroke="rgb(0,153,255)" d="M 7400,10926 L 7400,10977"/>
       <path fill="none" stroke="rgb(0,153,255)" d="M 7400,11028 L 7400,11079"/>
       <path fill="none" stroke="rgb(0,153,255)" d="M 7400,11130 L 7400,11181"/>
       <path fill="none" stroke="rgb(0,153,255)" d="M 7400,11232 L 7400,11283"/>
       <path fill="none" stroke="rgb(0,153,255)" d="M 7400,11334 L 7400,11385"/>
       <path fill="none" stroke="rgb(0,153,255)" d="M 7400,11436 L 7400,11487"/>
       <path fill="none" stroke="rgb(0,153,255)" d="M 7402,11538 C 7403,11555 7405,11571 7408,11588"/>
       <path fill="none" stroke="rgb(0,153,255)" d="M 7420,11638 C 7425,11654 7431,11670 7437,11686"/>
       <path fill="none" stroke="rgb(0,153,255)" d="M 7457,11733 C 7465,11748 7473,11763 7482,11778"/>
       <path fill="none" stroke="rgb(0,153,255)" d="M 7510,11820 C 7520,11834 7530,11848 7541,11861"/>
       <path fill="none" stroke="rgb(0,153,255)" d="M 7575,11899 C 7586,11912 7598,11923 7611,11935"/>
       <path fill="none" stroke="rgb(0,153,255)" d="M 7650,11968 C 7663,11979 7677,11989 7691,11998"/>
       <path fill="none" stroke="rgb(0,153,255)" d="M 7734,12025 C 7749,12034 7765,12041 7780,12049"/>
       <path fill="none" stroke="rgb(0,153,255)" d="M 7827,12068 C 7843,12074 7859,12079 7876,12083"/>
       <path fill="none" stroke="rgb(0,153,255)" d="M 7926,12094 C 7942,12097 7959,12099 7976,12099"/>
       <path fill="none" stroke="rgb(0,153,255)" d="M 8027,12100 L 8078,12100"/>
       <path fill="none" stroke="rgb(0,153,255)" d="M 8129,12100 L 8180,12100"/>
       <path fill="none" stroke="rgb(0,153,255)" d="M 8231,12100 L 8282,12100"/>
       <path fill="none" stroke="rgb(0,153,255)" d="M 8333,12100 L 8384,12100"/>
       <path fill="none" stroke="rgb(0,153,255)" d="M 8435,12100 L 8486,12100"/>
       <path fill="none" stroke="rgb(0,153,255)" d="M 8537,12100 L 8588,12100"/>
       <path fill="none" stroke="rgb(0,153,255)" d="M 8639,12100 L 8690,12100"/>
       <path fill="none" stroke="rgb(0,153,255)" d="M 8741,12100 L 8792,12100"/>
       <path fill="none" stroke="rgb(0,153,255)" d="M 8843,12100 L 8894,12100"/>
       <path fill="none" stroke="rgb(0,153,255)" d="M 8945,12100 L 8996,12100"/>
       <path fill="none" stroke="rgb(0,153,255)" d="M 9047,12100 L 9098,12100"/>
       <path fill="none" stroke="rgb(0,153,255)" d="M 9149,12100 L 9200,12100"/>
       <path fill="none" stroke="rgb(0,153,255)" d="M 9251,12100 L 9302,12100"/>
       <path fill="none" stroke="rgb(0,153,255)" d="M 9353,12100 L 9404,12100"/>
       <path fill="none" stroke="rgb(0,153,255)" d="M 9455,12100 L 9506,12100"/>
       <path fill="none" stroke="rgb(0,153,255)" d="M 9557,12100 L 9608,12100"/>
       <path fill="none" stroke="rgb(0,153,255)" d="M 9659,12100 L 9710,12100"/>
       <path fill="none" stroke="rgb(0,153,255)" d="M 9761,12100 L 9812,12100"/>
       <path fill="none" stroke="rgb(0,153,255)" d="M 9863,12100 L 9914,12100"/>
       <path fill="none" stroke="rgb(0,153,255)" d="M 9965,12100 L 10016,12100"/>
       <path fill="none" stroke="rgb(0,153,255)" d="M 10067,12100 L 10118,12100"/>
       <path fill="none" stroke="rgb(0,153,255)" d="M 10169,12100 L 10220,12100"/>
       <path fill="none" stroke="rgb(0,153,255)" d="M 10271,12100 L 10322,12100"/>
       <path fill="none" stroke="rgb(0,153,255)" d="M 10373,12100 L 10424,12100"/>
       <path fill="none" stroke="rgb(0,153,255)" d="M 10475,12100 L 10526,12100"/>
       <path fill="none" stroke="rgb(0,153,255)" d="M 10577,12100 L 10628,12100"/>
       <path fill="none" stroke="rgb(0,153,255)" d="M 10679,12100 L 10730,12100"/>
       <path fill="none" stroke="rgb(0,153,255)" d="M 10781,12100 L 10832,12100"/>
       <path fill="none" stroke="rgb(0,153,255)" d="M 10883,12100 L 10934,12100"/>
       <path fill="none" stroke="rgb(0,153,255)" d="M 10985,12100 L 11036,12100"/>
       <path fill="none" stroke="rgb(0,153,255)" d="M 11087,12100 L 11138,12100"/>
       <path fill="none" stroke="rgb(0,153,255)" d="M 11189,12100 L 11240,12100"/>
       <path fill="none" stroke="rgb(0,153,255)" d="M 11291,12100 L 11342,12100"/>
       <path fill="none" stroke="rgb(0,153,255)" d="M 11393,12100 L 11444,12100"/>
       <path fill="none" stroke="rgb(0,153,255)" d="M 11495,12100 L 11546,12100"/>
       <path fill="none" stroke="rgb(0,153,255)" d="M 11597,12100 L 11648,12100"/>
       <path fill="none" stroke="rgb(0,153,255)" d="M 11699,12100 L 11700,12100 C 11717,12100 11733,12099 11750,12097"/>
       <path fill="none" stroke="rgb(0,153,255)" d="M 11801,12089 C 11817,12086 11834,12081 11850,12076"/>
       <path fill="none" stroke="rgb(0,153,255)" d="M 11898,12058 C 11913,12052 11929,12045 11944,12037"/>
       <path fill="none" stroke="rgb(0,153,255)" d="M 11988,12012 C 12003,12003 12017,11993 12031,11983"/>
       <path fill="none" stroke="rgb(0,153,255)" d="M 12071,11951 C 12084,11940 12096,11929 12108,11917"/>
       <path fill="none" stroke="rgb(0,153,255)" d="M 12144,11880 C 12155,11867 12166,11854 12176,11841"/>
       <path fill="none" stroke="rgb(0,153,255)" d="M 12206,11799 C 12215,11784 12224,11770 12232,11755"/>
       <path fill="none" stroke="rgb(0,153,255)" d="M 12254,11709 C 12261,11694 12268,11678 12273,11662"/>
       <path fill="none" stroke="rgb(0,153,255)" d="M 12287,11613 C 12291,11596 12294,11579 12297,11563"/>
       <path fill="none" stroke="rgb(0,153,255)" d="M 12301,11512 C 12301,11508 12301,11504 12301,11500 L 12301,11461"/>
       <path fill="none" stroke="rgb(0,153,255)" d="M 12301,11410 L 12301,11359"/>
       <path fill="none" stroke="rgb(0,153,255)" d="M 12301,11308 L 12301,11257"/>
       <path fill="none" stroke="rgb(0,153,255)" d="M 12301,11206 L 12301,11155"/>
       <path fill="none" stroke="rgb(0,153,255)" d="M 12301,11104 L 12301,11053"/>
       <path fill="none" stroke="rgb(0,153,255)" d="M 12301,11002 L 12301,10951"/>
       <path fill="none" stroke="rgb(0,153,255)" d="M 12301,10900 L 12301,10849"/>
       <path fill="none" stroke="rgb(0,153,255)" d="M 12301,10798 L 12301,10747"/>
       <path fill="none" stroke="rgb(0,153,255)" d="M 12301,10696 L 12301,10645"/>
       <path fill="none" stroke="rgb(0,153,255)" d="M 12301,10594 L 12301,10543"/>
       <path fill="none" stroke="rgb(0,153,255)" d="M 12301,10492 L 12301,10441"/>
       <path fill="none" stroke="rgb(0,153,255)" d="M 12301,10390 L 12301,10339"/>
       <path fill="none" stroke="rgb(0,153,255)" d="M 12301,10288 L 12301,10237"/>
       <path fill="none" stroke="rgb(0,153,255)" d="M 12301,10186 L 12301,10135"/>
       <path fill="none" stroke="rgb(0,153,255)" d="M 12301,10084 L 12301,10033"/>
       <path fill="none" stroke="rgb(0,153,255)" d="M 12301,9982 L 12301,9931"/>
       <path fill="none" stroke="rgb(0,153,255)" d="M 12301,9880 L 12301,9829"/>
       <path fill="none" stroke="rgb(0,153,255)" d="M 12301,9778 L 12301,9727"/>
       <path fill="none" stroke="rgb(0,153,255)" d="M 12301,9676 L 12301,9625"/>
       <path fill="none" stroke="rgb(0,153,255)" d="M 12301,9574 L 12301,9523"/>
       <path fill="none" stroke="rgb(0,153,255)" d="M 12301,9472 L 12301,9421"/>
       <path fill="none" stroke="rgb(0,153,255)" d="M 12301,9370 L 12301,9319"/>
       <path fill="none" stroke="rgb(0,153,255)" d="M 12301,9268 L 12301,9217"/>
       <path fill="none" stroke="rgb(0,153,255)" d="M 12301,9166 L 12301,9115"/>
       <path fill="none" stroke="rgb(0,153,255)" d="M 12300,9064 C 12298,9047 12296,9030 12293,9013"/>
       <path fill="none" stroke="rgb(0,153,255)" d="M 12281,8964 C 12276,8947 12271,8931 12265,8915"/>
       <path fill="none" stroke="rgb(0,153,255)" d="M 12244,8869 C 12236,8853 12228,8838 12220,8824"/>
       <path fill="none" stroke="rgb(0,153,255)" d="M 12192,8781 C 12182,8767 12172,8753 12161,8740"/>
       <path fill="none" stroke="rgb(0,153,255)" d="M 12127,8702 C 12115,8690 12103,8678 12091,8666"/>
       <path fill="none" stroke="rgb(0,153,255)" d="M 12052,8633 C 12038,8622 12025,8612 12011,8603"/>
       <path fill="none" stroke="rgb(0,153,255)" d="M 11967,8576 C 11952,8567 11937,8559 11922,8552"/>
       <path fill="none" stroke="rgb(0,153,255)" d="M 11875,8533 C 11859,8527 11843,8521 11826,8517"/>
       <path fill="none" stroke="rgb(0,153,255)" d="M 11776,8506 C 11760,8504 11743,8502 11726,8501"/>
       <path fill="none" stroke="rgb(0,153,255)" d="M 11675,8500 L 11624,8500"/>
       <path fill="none" stroke="rgb(0,153,255)" d="M 11573,8500 L 11522,8500"/>
       <path fill="none" stroke="rgb(0,153,255)" d="M 11471,8500 L 11420,8500"/>
       <path fill="none" stroke="rgb(0,153,255)" d="M 11369,8500 L 11318,8500"/>
       <path fill="none" stroke="rgb(0,153,255)" d="M 11267,8500 L 11216,8500"/>
       <path fill="none" stroke="rgb(0,153,255)" d="M 11165,8500 L 11114,8500"/>
       <path fill="none" stroke="rgb(0,153,255)" d="M 11063,8500 L 11012,8500"/>
       <path fill="none" stroke="rgb(0,153,255)" d="M 10961,8500 L 10910,8500"/>
       <path fill="none" stroke="rgb(0,153,255)" d="M 10859,8500 L 10808,8500"/>
       <path fill="none" stroke="rgb(0,153,255)" d="M 10757,8500 L 10706,8500"/>
       <path fill="none" stroke="rgb(0,153,255)" d="M 10655,8500 L 10604,8500"/>
       <path fill="none" stroke="rgb(0,153,255)" d="M 10553,8500 L 10502,8500"/>
       <path fill="none" stroke="rgb(0,153,255)" d="M 10451,8500 L 10400,8500"/>
       <path fill="none" stroke="rgb(0,153,255)" d="M 10349,8500 L 10298,8500"/>
       <path fill="none" stroke="rgb(0,153,255)" d="M 10247,8500 L 10196,8500"/>
       <path fill="none" stroke="rgb(0,153,255)" d="M 10145,8500 L 10094,8500"/>
       <path fill="none" stroke="rgb(0,153,255)" d="M 10043,8500 L 9992,8500"/>
       <path fill="none" stroke="rgb(0,153,255)" d="M 9941,8500 L 9890,8500"/>
       <path fill="none" stroke="rgb(0,153,255)" d="M 9839,8500 L 9788,8500"/>
       <path fill="none" stroke="rgb(0,153,255)" d="M 9737,8500 L 9686,8500"/>
       <path fill="none" stroke="rgb(0,153,255)" d="M 9635,8500 L 9584,8500"/>
       <path fill="none" stroke="rgb(0,153,255)" d="M 9533,8500 L 9482,8500"/>
       <path fill="none" stroke="rgb(0,153,255)" d="M 9431,8500 L 9380,8500"/>
       <path fill="none" stroke="rgb(0,153,255)" d="M 9329,8500 L 9278,8500"/>
       <path fill="none" stroke="rgb(0,153,255)" d="M 9227,8500 L 9176,8500"/>
       <path fill="none" stroke="rgb(0,153,255)" d="M 9125,8500 L 9074,8500"/>
       <path fill="none" stroke="rgb(0,153,255)" d="M 9023,8500 L 8972,8500"/>
       <path fill="none" stroke="rgb(0,153,255)" d="M 8921,8500 L 8870,8500"/>
       <path fill="none" stroke="rgb(0,153,255)" d="M 8819,8500 L 8768,8500"/>
       <path fill="none" stroke="rgb(0,153,255)" d="M 8717,8500 L 8666,8500"/>
       <path fill="none" stroke="rgb(0,153,255)" d="M 8615,8500 L 8564,8500"/>
       <path fill="none" stroke="rgb(0,153,255)" d="M 8513,8500 L 8462,8500"/>
       <path fill="none" stroke="rgb(0,153,255)" d="M 8411,8500 L 8360,8500"/>
       <path fill="none" stroke="rgb(0,153,255)" d="M 8309,8500 L 8258,8500"/>
       <path fill="none" stroke="rgb(0,153,255)" d="M 8207,8500 L 8156,8500"/>
       <path fill="none" stroke="rgb(0,153,255)" d="M 8105,8500 L 8054,8500"/>
      </g>
     </g>
     <g class="com.sun.star.drawing.TextShape">
      <g id="id25">
       <text class="TextShape"><tspan class="TextParagraph" font-family="Arial, sans-serif" font-size="635px" font-weight="400"><tspan class="TextPosition" x="3300" y="11289"><tspan fill="rgb(0,0,0)" stroke="none">hostonlynet</tspan></tspan></tspan></text>
      </g>
     </g>
     <g class="com.sun.star.drawing.TextShape">
      <g id="id26">
       <text class="TextShape"><tspan class="TextParagraph" font-family="Arial, sans-serif" font-size="635px" font-weight="400"><tspan class="TextPosition" x="3301" y="6689"><tspan fill="rgb(0,0,0)" stroke="none">localnet</tspan></tspan></tspan></text>
      </g>
     </g>
     <g class="com.sun.star.drawing.OpenBezierShape">
      <g id="id27">
       <path fill="none" stroke="rgb(0,0,255)" d="M 2900,13100 C 3200,9900 2861,9676 4100,8501 5295,7365 7400,8000 7900,6900 8401,5800 8257,4412 8232,3391"/>
       <path fill="rgb(0,0,255)" stroke="none" d="M 8468,3381 L 8533,3426 8199,2600 7933,3449 7992,3402 8062,3363 8140,3336 8225,3323 8311,3327 8393,3348 8468,3381 Z"/>
      </g>
     </g>
     <g class="com.sun.star.drawing.OpenBezierShape">
      <g id="id28">
       <path fill="none" stroke="rgb(0,174,0)" d="M 7499,11000 C 6400,10700 6199,10100 6799,9200 7399,8300 14004,8550 14685,6658"/>
       <path fill="rgb(0,174,0)" stroke="none" d="M 14908,6687 L 14972,6733 14656,5900 14372,6743 14432,6697 14503,6660 14581,6634 14666,6623 14752,6629 14834,6652 14908,6687 Z"/>
      </g>
     </g>
    </g>
   </g>
  </g>
 </g>
</svg>